<svg width="256" height="256" viewBox="0 0 256 256" fill="none" xmlns="http://www.w3.org/2000/svg">
  <rect width="256" height="256" rx="44" fill="#070708"/>
  <rect x="4" y="4" width="248" height="248" rx="40" fill="#0D0D0F" stroke="#1C1C20" stroke-width="2"/>
  <path d="M64 176V92L126 56L200 96V154" stroke="#785CFF" stroke-width="14" stroke-linejoin="round"/>
  <path d="M64 92L126 56L200 96V154" stroke="#4589FF" stroke-width="14" stroke-linejoin="round"/>
  <path d="M126 56L200 96" stroke="#7599FF" stroke-width="7" stroke-linejoin="round"/>
  <path d="M64 176L103 200" stroke="#604CD2" stroke-opacity="0.82" stroke-width="9" stroke-linecap="round"/>
  <text x="92" y="109" fill="#F4F4F4" font-family="IBM Plex Mono, Consolas, monospace" font-size="18" font-weight="700" letter-spacing="0">HEX</text>
  <path d="M86 151L68 166L86 181" stroke="#F4F4F4" stroke-width="8" stroke-linejoin="miter"/>
  <path d="M196 151L214 166L196 181" stroke="#F4F4F4" stroke-width="8" stroke-linejoin="miter"/>
  <g font-family="IBM Plex Mono, Consolas, monospace" font-size="22" font-weight="700" fill="#24D48F">
    <rect x="104" y="132" width="30" height="32" rx="2" fill="#171719" stroke="#F4F4F4" stroke-width="4"/>
    <rect x="142" y="132" width="30" height="32" rx="2" fill="#171719" stroke="#F4F4F4" stroke-width="4"/>
    <rect x="104" y="168" width="30" height="32" rx="2" fill="#171719" stroke="#F4F4F4" stroke-width="4"/>
    <rect x="142" y="168" width="30" height="32" rx="2" fill="#171719" stroke="#F4F4F4" stroke-width="4"/>
    <text x="112" y="153">5</text>
    <text x="150" y="153">A</text>
    <text x="112" y="189">6</text>
    <text x="150" y="189">1</text>
  </g>
</svg>
